HIERARCHY
ROOT Hips
{
    OFFSET   0.000000   0.000000   0.000000
    CHANNELS 6 Xposition Yposition Zposition Zrotation Xrotation Yrotation
    JOINT Chest
    {
        OFFSET   0.000000   8.007230   0.000000
        CHANNELS 3 Zrotation Xrotation Yrotation
        JOINT Chest2
        {
            OFFSET   0.000000  22.077100   0.000000
            CHANNELS 3 Zrotation Xrotation Yrotation
            JOINT Neck
            {
                OFFSET   0.000000  23.254800  -0.000021
                CHANNELS 3 Zrotation Xrotation Yrotation
                JOINT Head
                {
                    OFFSET   0.000000  14.370000   1.956610
                    CHANNELS 3 Zrotation Xrotation Yrotation
                    End Site
                    {
                        OFFSET   0.000000  19.566000   0.000000
                    }
                }
            }
            JOINT LeftCollar
            {
                OFFSET   3.911900  19.017000  -0.467063
                CHANNELS 3 Zrotation Xrotation Yrotation
                JOINT LeftShoulder
                {
                    OFFSET  10.383700   0.000000   0.000000
                    CHANNELS 3 Zrotation Xrotation Yrotation
                    JOINT LeftElbow
                    {
                        OFFSET  26.662100   0.001529   0.000325
                        CHANNELS 3 Zrotation Xrotation Yrotation
                        JOINT LeftWrist
                        {
                            OFFSET  28.869000  -0.000011  -0.000096
                            CHANNELS 3 Zrotation Xrotation Yrotation
                            JOINT LeftFinger0
                            {
                                OFFSET   2.044650  -2.323460   3.252850
                                CHANNELS 3 Zrotation Xrotation Yrotation
                                JOINT LeftFinger01
                                {
                                    OFFSET   3.088130   0.000000   0.000000
                                    CHANNELS 3 Zrotation Xrotation Yrotation
                                    JOINT LeftFinger02
                                    {
                                        OFFSET   2.639460   0.000000   0.000000
                                        CHANNELS 3 Zrotation Xrotation Yrotation
                                        End Site
                                        {
                                            OFFSET   2.582190   0.000000   0.000000
                                        }
                                    }
                                }
                            }
                            JOINT LeftFinger1
                            {
                                OFFSET   8.364480   0.000000   3.252850
                                CHANNELS 3 Zrotation Xrotation Yrotation
                                JOINT LeftFinger11
                                {
                                    OFFSET   4.646930   0.000000   0.000000
                                    CHANNELS 3 Zrotation Xrotation Yrotation
                                    JOINT LeftFinger12
                                    {
                                        OFFSET   2.323460   0.000000   0.000000
                                        CHANNELS 3 Zrotation Xrotation Yrotation
                                        End Site
                                        {
                                            OFFSET   2.273050   0.000000   0.000000
                                        }
                                    }
                                }
                            }
                            JOINT LeftFinger2
                            {
                                OFFSET   8.364480   0.000016   1.078090
                                CHANNELS 3 Zrotation Xrotation Yrotation
                                JOINT LeftFinger21
                                {
                                    OFFSET   5.111620   0.000000   0.000000
                                    CHANNELS 3 Zrotation Xrotation Yrotation
                                    JOINT LeftFinger22
                                    {
                                        OFFSET   2.788160   0.000017   0.000000
                                        CHANNELS 3 Zrotation Xrotation Yrotation
                                        End Site
                                        {
                                            OFFSET   2.727660   0.000000   0.000000
                                        }
                                    }
                                }
                            }
                            JOINT LeftFinger3
                            {
                                OFFSET   7.899780   0.000015  -1.078090
                                CHANNELS 3 Zrotation Xrotation Yrotation
                                JOINT LeftFinger31
                                {
                                    OFFSET   4.646920   0.000000   0.000000
                                    CHANNELS 3 Zrotation Xrotation Yrotation
                                    JOINT LeftFinger32
                                    {
                                        OFFSET   2.323470   0.000000   0.000000
                                        CHANNELS 3 Zrotation Xrotation Yrotation
                                        End Site
                                        {
                                            OFFSET   2.273050   0.000000   0.000000
                                        }
                                    }
                                }
                            }
                            JOINT LeftFinger4
                            {
                                OFFSET   7.435090   0.000000  -3.252850
                                CHANNELS 3 Zrotation Xrotation Yrotation
                                JOINT LeftFinger41
                                {
                                    OFFSET   3.717550   0.000000   0.000000
                                    CHANNELS 3 Zrotation Xrotation Yrotation
                                    JOINT LeftFinger42
                                    {
                                        OFFSET   1.858760   0.000000   0.000000
                                        CHANNELS 3 Zrotation Xrotation Yrotation
                                        End Site
                                        {
                                            OFFSET   1.818440   0.000000   0.000000
                                        }
                                    }
                                }
                            }
                        }
                    }
                }
            }
            JOINT RightCollar
            {
                OFFSET  -3.911900  19.017000  -0.467062
                CHANNELS 3 Zrotation Xrotation Yrotation
                JOINT RightShoulder
                {
                    OFFSET -10.383700   0.000015   0.000000
                    CHANNELS 3 Zrotation Xrotation Yrotation
                    JOINT RightElbow
                    {
                        OFFSET -26.662100   0.001341   0.000385
                        CHANNELS 3 Zrotation Xrotation Yrotation
                        JOINT RightWrist
                        {
                            OFFSET -28.869000   0.000025  -0.000080
                            CHANNELS 3 Zrotation Xrotation Yrotation
                            JOINT RightFinger0
                            {
                                OFFSET  -2.044650  -2.323490   3.252850
                                CHANNELS 3 Zrotation Xrotation Yrotation
                                JOINT RightFinger01
                                {
                                    OFFSET  -3.088130   0.000000   0.000000
                                    CHANNELS 3 Zrotation Xrotation Yrotation
                                    JOINT RightFinger02
                                    {
                                        OFFSET  -2.639460   0.000000   0.000000
                                        CHANNELS 3 Zrotation Xrotation Yrotation
                                        End Site
                                        {
                                            OFFSET  -2.582190   0.000000   0.000000
                                        }
                                    }
                                }
                            }
                            JOINT RightFinger1
                            {
                                OFFSET  -8.364480   0.000000   3.252850
                                CHANNELS 3 Zrotation Xrotation Yrotation
                                JOINT RightFinger11
                                {
                                    OFFSET  -4.646930   0.000000   0.000000
                                    CHANNELS 3 Zrotation Xrotation Yrotation
                                    JOINT RightFinger12
                                    {
                                        OFFSET  -2.323470   0.000000   0.000000
                                        CHANNELS 3 Zrotation Xrotation Yrotation
                                        End Site
                                        {
                                            OFFSET  -2.273050   0.000000   0.000000
                                        }
                                    }
                                }
                            }
                            JOINT RightFinger2
                            {
                                OFFSET  -8.364480   0.000000   1.078090
                                CHANNELS 3 Zrotation Xrotation Yrotation
                                JOINT RightFinger21
                                {
                                    OFFSET  -5.111610   0.000000   0.000000
                                    CHANNELS 3 Zrotation Xrotation Yrotation
                                    JOINT RightFinger22
                                    {
                                        OFFSET  -2.788160   0.000000   0.000000
                                        CHANNELS 3 Zrotation Xrotation Yrotation
                                        End Site
                                        {
                                            OFFSET  -2.727660   0.000000   0.000000
                                        }
                                    }
                                }
                            }
                            JOINT RightFinger3
                            {
                                OFFSET  -7.899780   0.000000  -1.078090
                                CHANNELS 3 Zrotation Xrotation Yrotation
                                JOINT RightFinger31
                                {
                                    OFFSET  -4.646920   0.000000   0.000000
                                    CHANNELS 3 Zrotation Xrotation Yrotation
                                    JOINT RightFinger32
                                    {
                                        OFFSET  -2.323470   0.000000   0.000000
                                        CHANNELS 3 Zrotation Xrotation Yrotation
                                        End Site
                                        {
                                            OFFSET  -2.273050   0.000000   0.000000
                                        }
                                    }
                                }
                            }
                            JOINT RightFinger4
                            {
                                OFFSET  -7.435090   0.000000  -3.252850
                                CHANNELS 3 Zrotation Xrotation Yrotation
                                JOINT RightFinger41
                                {
                                    OFFSET  -3.717550   0.000000   0.000000
                                    CHANNELS 3 Zrotation Xrotation Yrotation
                                    JOINT RightFinger42
                                    {
                                        OFFSET  -1.858770   0.000000   0.000000
                                        CHANNELS 3 Zrotation Xrotation Yrotation
                                        End Site
                                        {
                                            OFFSET  -1.818440   0.000000   0.000000
                                        }
                                    }
                                }
                            }
                        }
                    }
                }
            }
        }
    }
    JOINT LeftHip
    {
        OFFSET   9.783010   0.000000   0.000000
        CHANNELS 3 Zrotation Xrotation Yrotation
        JOINT LeftKnee
        {
            OFFSET   0.000070 -41.789100   0.000028
            CHANNELS 3 Zrotation Xrotation Yrotation
            JOINT LeftAnkle
            {
                OFFSET   0.000087 -41.133200  -0.000100
                CHANNELS 3 Zrotation Xrotation Yrotation
                JOINT LeftToe
                {
                    OFFSET   0.000000  -6.358960  14.674500
                    CHANNELS 3 Zrotation Xrotation Yrotation
                    End Site
                    {
                        OFFSET   0.000000   0.000000   3.913200
                    }
                }
            }
        }
    }
    JOINT RightHip
    {
        OFFSET  -9.783020   0.000000   0.000000
        CHANNELS 3 Zrotation Xrotation Yrotation
        JOINT RightKnee
        {
            OFFSET   0.000044 -41.789100  -0.000870
            CHANNELS 3 Zrotation Xrotation Yrotation
            JOINT RightAnkle
            {
                OFFSET  -0.000090 -41.133200  -0.000245
                CHANNELS 3 Zrotation Xrotation Yrotation
                JOINT RightToe
                {
                    OFFSET   0.000000  -6.358960  14.674500
                    CHANNELS 3 Zrotation Xrotation Yrotation
                    End Site
                    {
                        OFFSET   0.000000   0.000000   3.913200
                    }
                }
            }
        }
    }
}
MOTION
Frames: 6
Frame Time:   0.016667
  0.643551  88.925800   0.568970  -0.666781 -25.214100  -3.028890  -1.300510  18.965800   1.916360  -3.646860  37.864400   4.747480  -5.827110 -12.254600  -1.240940 -10.825400 -24.061700   5.132890  -3.704690  -4.271190   9.108090 -75.600900   9.999860 -38.524400   4.726130 -12.259800 -68.861000  81.080300 -82.054900  80.630900  37.467900  21.064700 -61.794300 -20.207100  -0.000374   0.008020  -5.103560   0.002040  -0.001961 -32.776900   2.840090  -4.398620 -26.904300   0.007041  -0.004977 -18.833000   0.005722  -0.000197 -29.143500  -3.744640   6.684030 -44.043600   0.002391  -0.001142 -29.333100   0.003161   0.004228 -28.372700  -4.528560   8.318390 -39.043700   0.003175  -0.002909 -26.003100  -0.008314   0.004997 -30.035100  -9.792990  16.397200 -47.171500   0.001332   0.001165 -31.416200   0.008424   0.004206   1.344300  -3.769460  11.392300  69.696800  12.121900  46.616000  -7.006550 -15.082300  67.817500 -78.139200 -65.644200 -55.644200 -43.681000  37.054800  78.551900   1.599910  -0.000616  -0.000000  -4.200060  -0.000611   0.001722  29.676200  -0.011070  -0.021565  24.280900   0.001252  -0.000624  16.996600   0.002881   0.000120  27.932600  -2.325950  -4.377810  32.144200   0.002338   0.002304  21.408000   0.002356  -0.001620  28.303000  -5.008840  -9.209340  39.197500   0.003537   0.004388  26.105500   0.003354  -0.002091  32.865000  -5.728060  -8.781830  49.958000   0.002289  -0.001535  33.272000   0.002129   0.007731   0.720199  26.132400   2.953910  -0.116616   3.804930  13.211400  -2.323970  -4.742940   1.694130  -0.000000   0.000000  -0.000000  -2.742960  17.372600  -6.886280  -4.126970  18.622900  -8.253320   5.351070  -8.950060   4.680340  -0.000000   0.000000   0.000000
  0.628260  88.929100   0.592584  -0.708834 -25.130600  -3.086690  -1.240950  18.865600   1.905920  -3.506010  37.667100   4.696330  -5.736130 -12.173400  -1.213420 -10.640800 -23.926700   5.358120  -3.746590  -4.232530   9.054690 -75.764500   9.673830 -38.158400   4.676120 -11.776500 -68.773300  79.111700 -82.217300  78.726500  37.794800  21.617000 -62.036600 -20.203300  -0.000338   0.008097  -5.101640   0.002087  -0.002003 -32.834900   2.706160  -4.185830 -26.943100   0.007067  -0.005050 -18.860100   0.005710  -0.000203 -29.199700  -3.744690   6.668360 -44.127100   0.002453  -0.001220 -29.388700   0.003259   0.004223 -28.362600  -4.621400   8.489040 -39.137400   0.003231  -0.002964 -26.065500  -0.008320   0.004924 -30.175000  -9.917190  16.522100 -47.421600   0.001354   0.001122 -31.582800   0.008467   0.004219   1.391750  -3.718680  11.359900  69.598600  11.944800  46.329700  -6.958230 -14.780400  67.646000 -77.298200 -65.842100 -54.784200 -44.114800  37.495100  79.084900   1.197820  -0.000764   0.000000  -4.401080  -0.000742   0.001782  29.849500   0.096445   0.167487  24.422700   0.001674  -0.000634  17.095900   0.002926   0.000221  27.979000  -2.211260  -4.153220  32.387000   0.002573   0.002334  21.569700   0.002438  -0.001597  28.323700  -5.000250  -9.186290  39.542000   0.003762   0.004473  26.335000   0.003529  -0.002116  33.031000  -5.740320  -8.744790  50.205600   0.002424  -0.001612  33.436900   0.002192   0.007717   0.743017  26.094300   2.936980  -0.126830   3.797720  13.210900  -2.329820  -4.766750   1.739890  -0.000000   0.000000  -0.000000  -2.697990  17.358100  -6.908390  -4.121880  18.487500  -8.286190   5.319660  -8.882120   4.757280   0.000000   0.000000   0.000000
  0.609797  88.935400   0.619259  -0.749272 -25.018700  -3.107170  -1.169890  18.744000   1.874780  -3.323160  37.428600   4.583960  -5.653450 -12.080400  -1.186850 -10.469700 -23.765800   5.568720  -3.801140  -4.177670   9.000720 -75.903400   9.325800 -37.699500   4.646720 -11.243000 -68.728100  75.547200 -82.378200  75.218900  38.287600  22.435800 -62.416800 -20.192300  -0.000303   0.008172  -5.096120   0.002139  -0.002046 -32.951300   2.505040  -3.861440 -27.026800   0.007085  -0.005126 -18.918700   0.005697  -0.000208 -29.281700  -3.744780   6.645360 -44.249100   0.002516  -0.001295 -29.469900   0.003360   0.004214 -28.343200  -4.778550   8.778980 -39.220600   0.003285  -0.003020 -26.120900  -0.008321   0.004842 -30.310200 -10.092800  16.685000 -47.689600   0.001380   0.001076 -31.761300   0.008506   0.004235   1.489470  -3.657920  11.346400  69.524400  11.747700  45.945700  -6.952310 -14.491800  67.488400 -75.755900 -66.116200 -53.215500 -44.542600  37.880800  79.469800   0.844768  -0.000930  -0.000000  -4.577600  -0.000879   0.001843  29.921200   0.158799   0.276552  24.481600   0.002151  -0.000644  17.137100   0.002970   0.000320  28.005400  -2.142520  -4.020690  32.529400   0.002818   0.002362  21.664600   0.002522  -0.001577  28.333300  -4.993650  -9.170410  39.789500   0.003991   0.004554  26.499800   0.003708  -0.002139  33.126500  -5.745310  -8.720540  50.347800   0.002565  -0.001690  33.531600   0.002256   0.007702   0.796614  26.010900   2.911530  -0.142301   3.791540  13.207900  -2.338590  -4.786750   1.778810  -0.000000   0.000000   0.000000  -2.637110  17.353900  -6.923220  -4.088090  18.274600  -8.382640   5.283370  -8.788330   4.825750  -0.000000   0.000000   0.000000
  0.586719  88.944800   0.647249  -0.789703 -24.868200  -3.074890  -1.084500  18.592800   1.818390  -3.100620  37.132300   4.414050  -5.575040 -11.970300  -1.159870 -10.303400 -23.569600   5.772670  -3.868240  -4.087920   8.950020 -75.970700   8.948890 -37.115400   4.640810 -10.649900 -68.733700  71.321600 -82.558700  70.988500  38.598000  22.961200 -62.667100 -20.080900  -0.000273   0.008241  -5.040430   0.002188  -0.002090 -33.096400   2.370790  -3.627560 -27.139800   0.007095  -0.005207 -18.997800   0.005687  -0.000222 -29.303300  -3.744780   6.639210 -44.281200   0.002544  -0.001372 -29.491300   0.003414   0.004203 -28.313200  -4.943360   9.085240 -39.237900   0.003353  -0.003081 -26.132400  -0.008310   0.004760 -30.393000 -10.174400  16.730300 -47.837200   0.001407   0.001038 -31.859600   0.008553   0.004250   1.685560  -3.614320  11.343700  69.361700  11.581300  45.466900  -7.060390 -14.174000  67.281900 -74.289000 -66.216500 -51.664300 -44.805700  37.974000  79.485900   0.718182  -0.001121   0.000064  -4.640910  -0.000992   0.001910  29.872300   0.158659   0.276390  24.441500   0.002663  -0.000668  17.109000   0.003009   0.000410  28.014100  -2.159960  -4.054050  32.590300   0.002947   0.002376  21.705200   0.002558  -0.001574  28.330100  -4.989320  -9.164160  39.898500   0.004102   0.004645  26.572400   0.003798  -0.002168  33.164100  -5.746970  -8.710440  50.403600   0.002642  -0.001762  33.568800   0.002283   0.007683   0.884669  25.897700   2.880210  -0.162953   3.780850  13.155600  -2.352090  -4.799270   1.802550   0.000000   0.000000  -0.000000  -2.544450  17.394300  -6.922190  -4.035610  17.949800  -8.540430   5.247230  -8.665240   4.874150  -0.000000   0.000000   0.000000
  0.561589  88.957200   0.685090  -0.830759 -24.690400  -3.000290  -0.986739  18.418200   1.746700  -2.844520  36.789700   4.205490  -5.497140 -11.839400  -1.131390 -10.135000 -23.331800   5.951490  -3.940570  -3.975820   8.921940 -75.985000   8.565220 -36.420400   4.615010 -10.009600 -68.769100  67.121800 -82.759600  66.777000  38.747600  23.217800 -62.790900 -19.980600  -0.000241   0.008309  -4.990330   0.002234  -0.002136 -33.253500   2.303620  -3.505320 -27.264100   0.007098  -0.005289 -19.084900   0.005675  -0.000236 -29.350700  -3.744740   6.625480 -44.351900   0.002625  -0.001449 -29.538400   0.003580   0.004189 -28.300800  -5.043650   9.272330 -39.255100   0.003395  -0.003145 -26.143900  -0.008290   0.004678 -30.507600 -10.204400  16.737800 -48.017200   0.001439   0.001000 -31.979500   0.008597   0.004267   1.912890  -3.552450  11.340800  69.121800  11.442900  44.928000  -7.179170 -13.906400  67.053600 -72.818600 -66.277400 -50.075900 -45.150300  38.064400  79.503200   0.700099  -0.001339   0.000131  -4.649960  -0.001104   0.001981  29.823500   0.157675   0.275256  24.401300   0.003197  -0.000694  17.080900   0.003051   0.000504  28.039100  -2.218930  -4.157990  32.725900   0.003347   0.002418  21.795400   0.002661  -0.001574  28.328100  -4.981160  -9.150170  40.173600   0.004434   0.004698  26.755600   0.004070  -0.002200  33.239700  -5.748830  -8.687080  50.515700   0.002885  -0.001831  33.643400   0.002358   0.007659   0.997549  25.755900   2.835900  -0.183096   3.767360  13.073500  -2.365380  -4.806350   1.811610  -0.000000   0.000000   0.000000  -2.422220  17.482100  -6.920490  -3.972710  17.540000  -8.738580   5.209630  -8.517000   4.894730  -0.000000   0.000000  -0.000000
  0.536310  88.972800   0.744208  -0.877415 -24.499700  -2.892990  -0.875434  18.226600   1.666630  -2.556110  36.413400   3.974060  -5.414500 -11.680700  -1.099610  -9.953350 -23.039600   6.084090  -4.011610  -3.842160   8.928030 -75.950800   8.185900 -35.611400   4.509990  -9.323340 -68.844100  64.902000 -83.105600  64.560500  38.219800  22.015200 -62.245800 -19.980700  -0.000195   0.008403  -4.990360   0.002269  -0.002187 -33.422100   2.439720  -3.689890 -27.398700   0.007093  -0.005361 -19.179100   0.005652  -0.000239 -29.500300  -3.741430   6.581430 -44.574800   0.006835  -0.001525 -29.686800   0.004016   0.004171 -28.332700  -5.009070   9.200230 -39.862600  -0.001665  -0.003214 -26.548500  -0.008282   0.004599 -30.790600 -10.200800  16.563200 -48.430400   0.001456   0.000957 -32.254700   0.008634   0.004293   2.111580  -3.436310  11.320400  68.753900  11.364400  44.384200  -7.225790 -13.774300  66.834600 -71.695600 -66.392500 -48.877200 -45.644000  38.331700  79.687700   0.749764  -0.001586   0.000134  -4.625130  -0.001231   0.002051  29.931700   0.142216   0.245181  24.488000   0.003741  -0.000713  17.141500   0.003107   0.000618  28.143000  -2.340130  -4.362800  33.486500   0.015389   0.009704  22.301900   0.011893  -0.001573  28.361800  -4.954640  -9.090410  41.054900   0.012895   0.004611  27.342500   0.010612  -0.002241  33.650900  -5.774790  -8.590320  51.129800   0.012375  -0.001896  34.052400   0.008134   0.007629   1.127030  25.596300   2.772210  -0.198387   3.752320  13.012600  -2.374700  -4.808660   1.790510  -0.000000   0.000000  -0.000000  -2.270330  17.602500  -6.922330  -3.916230  17.056300  -8.952440   5.173310  -8.344560   4.890060  -0.000000   0.000000   0.000000
